 <svg  version="1.0" xmlns="http://www.w3.org/2000/svg"  width="300.000000pt" height="300.000000pt" viewBox="0 0 300.000000 300.000000"  preserveAspectRatio="xMidYMid meet">  <g transform="translate(0.000000,300.000000) scale(0.100000,-0.100000)" fill="#ffffff" stroke="none"> <path d="M1383 2464 c-230 -33 -418 -121 -557 -260 -124 -125 -192 -255 -238 -455 -20 -91 -21 -114 -20 -652 l2 -558 532 1 c293 0 560 5 593 9 390 57 642 292 737 690 19 78 21 126 25 491 l5 405 -90 0 -90 0 -4 -395 c-4 -371 -6 -400 -27 -480 -26 -97 -84 -223 -136 -292 -71 -95 -194 -174 -345 -219 -72 -22 -92 -23 -550 -27 l-475 -3 2 438 c3 480 8 542 57 673 80 215 241 358 486 432 73 22 87 22 623 26 l547 3 0 94 0 95 -492 -1 c-356 -1 -519 -5 -585 -15z m1025 -36 c16 -16 15 -75 0 -85 -7 -4 -245 -10 -528 -13 -493 -5 -518 -7 -594 -28 -313 -87 -498 -291 -565 -621 -7 -34 -11 -216 -11 -504 l0 -450 22 -24 23 -24 475 3 c458 4 478 5 550 27 306 91 485 316 529 662 5 41 10 216 10 389 1 173 5 318 10 323 5 5 26 7 47 5 l39 -3 3 -320 c4 -429 -14 -557 -103 -740 -96 -197 -244 -325 -453 -394 -142 -47 -220 -52 -757 -49 l-490 3 -5 442 c-6 545 -1 667 35 788 50 169 144 314 268 415 125 101 327 178 522 199 133 14 959 13 973 -1z"/> <path d="M1280 2054 c-184 -31 -254 -77 -299 -199 -42 -111 -47 -322 -12 -453 25 -90 102 -165 205 -199 66 -21 521 -31 623 -13 155 27 242 113 272 270 14 78 7 304 -13 365 -36 115 -108 183 -225 212 -54 14 -490 28 -551 17z m520 -54 c120 -23 184 -78 218 -189 24 -80 24 -313 -1 -394 -24 -77 -80 -139 -155 -169 -54 -22 -69 -23 -332 -23 -238 0 -283 2 -335 18 -167 51 -212 141 -203 408 6 167 19 211 81 276 47 49 103 71 210 83 92 11 445 4 517 -10z"/> <path d="M1315 1974 c-134 -21 -210 -78 -242 -181 -24 -79 -25 -275 -1 -353 20 -66 71 -119 141 -150 65 -29 270 -44 434 -31 178 13 247 49 295 155 21 46 23 66 23 196 0 179 -10 218 -74 281 -69 70 -114 81 -351 84 -107 2 -208 1 -225 -1z m384 -44 c189 -24 236 -92 229 -333 -3 -117 -6 -138 -28 -182 -21 -42 -34 -55 -85 -80 l-60 -30 -230 0 c-263 0 -306 7 -365 64 -51 48 -64 99 -64 246 1 272 59 321 389 324 72 0 168 -4 214 -9z"/> <path d="M1236 1709 c-24 -19 -26 -27 -26 -90 0 -77 19 -109 65 -109 46 0 65 32 65 109 0 63 -2 71 -26 90 -15 12 -32 21 -39 21 -7 0 -24 -9 -39 -21z m62 -98 c-3 -38 -6 -46 -23 -46 -17 0 -20 8 -23 49 -2 32 1 52 10 57 23 15 39 -12 36 -60z"/> <path d="M1676 1709 c-24 -19 -26 -27 -26 -90 0 -56 4 -73 20 -89 24 -24 57 -26 88 -4 19 13 22 24 22 87 0 78 -4 88 -37 106 -30 15 -36 14 -67 -10z m60 -53 c3 -13 4 -38 2 -57 -2 -26 -8 -34 -23 -34 -15 0 -21 8 -23 34 -5 46 5 81 23 81 8 0 17 -11 21 -24z"/> <path d="M1185 1086 c-30 -30 -41 -87 -26 -137 21 -69 20 -69 356 -69 l302 0 23 25 c35 38 39 119 8 165 l-24 35 -307 3 -308 2 -24 -24z m625 -36 c12 -12 20 -33 20 -55 0 -22 -8 -43 -20 -55 -19 -19 -33 -20 -297 -20 -153 0 -283 4 -290 8 -18 12 -34 62 -27 86 17 57 14 56 316 56 265 0 279 -1 298 -20z"/> </g> </svg> 