<?xml version="1.0" standalone="no"?>
<!DOCTYPE svg PUBLIC "-//W3C//DTD SVG 20010904//EN"
 "http://www.w3.org/TR/2001/REC-SVG-20010904/DTD/svg10.dtd">
<svg version="1.0" xmlns="http://www.w3.org/2000/svg"
 width="300.000000pt" height="300.000000pt" viewBox="0 0 300.000000 300.000000"
 preserveAspectRatio="xMidYMid meet">
<metadata>
Created by potrace 1.10, written by Peter Selinger 2001-2011
</metadata>
<g transform="translate(0.000000,300.000000) scale(0.100000,-0.100000)"
fill="#000000" stroke="none">
<path d="M1375 2539 c-422 -54 -730 -299 -848 -674 -44 -141 -48 -197 -50
-823 l-2 -593 610 4 c576 4 615 5 696 25 377 91 603 316 707 701 24 91 26 112
29 386 2 160 4 363 6 453 l2 162 -97 0 -97 0 -3 -432 c-5 -498 -7 -516 -100
-707 -42 -87 -62 -116 -127 -182 -64 -63 -95 -85 -172 -122 -159 -76 -182 -80
-534 -84 -170 -2 -404 -4 -518 -6 l-208 -2 3 515 c4 586 5 587 92 765 104 210
260 328 531 402 51 14 146 18 643 22 l584 6 1 98 2 97 -540 -1 c-297 -1 -571
-6 -610 -10z m848 -32 c31 -1 58 1 60 5 1 3 47 3 102 0 l100 -7 3 -43 c6 -77
36 -72 -507 -73 -558 0 -566 0 -692 -30 -312 -73 -515 -253 -607 -539 -39
-120 -43 -178 -49 -651 -6 -488 -3 -527 37 -549 13 -7 244 -12 430 -9 8 0 26
-3 39 -7 14 -4 22 -3 19 2 -4 5 99 9 250 9 177 0 276 4 317 14 95 21 208 62
228 82 16 18 31 23 50 20 4 -1 10 6 13 14 3 8 10 13 15 10 4 -3 29 14 54 38
25 24 45 42 45 39 0 -3 17 17 38 44 61 77 109 166 140 261 53 158 61 251 62
706 l0 298 58 -3 57 -3 0 -410 c0 -310 -3 -415 -13 -432 -8 -15 -9 -24 -2 -28
8 -5 7 -11 0 -20 -7 -8 -9 -19 -5 -25 3 -5 2 -10 -2 -10 -5 0 -14 -26 -21 -57
-16 -78 -69 -196 -125 -279 -132 -198 -324 -319 -577 -365 -95 -18 -156 -20
-659 -19 -304 0 -557 3 -562 6 -6 3 -9 192 -9 465 1 252 -1 463 -5 469 -3 5
-3 15 0 20 3 6 8 63 10 128 3 84 11 145 30 217 99 378 349 609 756 697 85 18
631 27 922 15z"/>
<path d="M1255 2091 c-265 -26 -365 -155 -365 -473 0 -156 19 -249 63 -316 38
-56 110 -106 182 -127 108 -32 425 -45 612 -25 267 28 362 149 363 461 0 196
-24 289 -96 369 -79 87 -164 108 -464 114 -118 3 -251 1 -295 -3z m555 -44
c59 -6 147 -54 186 -102 59 -73 76 -145 77 -322 0 -130 -3 -161 -23 -222 -41
-127 -123 -191 -277 -212 -43 -6 -81 -13 -85 -15 -5 -3 -8 -2 -8 3 0 4 -100 8
-223 9 -176 0 -235 4 -286 17 -181 48 -246 156 -246 407 0 113 20 260 36 260
5 0 6 6 3 13 -8 22 81 113 128 132 98 39 153 45 423 40 143 -2 276 -6 295 -8z"/>
<path d="M1416 2003 c-1 -1 -35 -3 -77 -4 -140 -4 -246 -54 -288 -138 -32 -61
-44 -150 -39 -283 5 -146 27 -208 91 -263 72 -62 104 -68 377 -73 242 -4 265
-2 355 31 17 6 49 29 73 51 63 58 77 113 77 306 0 140 -3 160 -23 206 -13 28
-38 65 -55 82 -40 39 -121 75 -147 67 -11 -4 -20 -2 -20 4 0 8 -316 22 -324
14z m272 -43 c196 -21 253 -81 268 -285 8 -101 -9 -227 -39 -284 -50 -98 -171
-128 -477 -118 -202 7 -261 20 -321 74 -56 51 -74 115 -73 273 0 238 55 316
238 340 88 11 296 11 404 0z"/>
<path d="M1213 1730 c-32 -13 -43 -41 -43 -113 0 -47 5 -70 18 -85 26 -32 63
-37 95 -12 25 20 27 27 27 100 0 73 -2 80 -26 99 -29 23 -38 24 -71 11z m57
-59 c26 -49 3 -127 -36 -119 -15 3 -20 13 -22 57 -2 29 -1 60 2 67 8 21 44 17
56 -5z"/>
<path d="M1693 1730 c-32 -13 -43 -41 -43 -113 0 -47 5 -70 18 -85 26 -32 63
-37 95 -12 25 20 27 27 27 99 0 62 -4 81 -17 93 -25 22 -54 28 -80 18z m60
-89 c11 -57 -4 -94 -36 -89 -19 3 -22 10 -25 57 -4 68 2 83 30 79 18 -2 24
-12 31 -47z"/>
<path d="M1157 1049 c-54 -42 -59 -141 -11 -199 l26 -30 328 0 328 0 26 30
c48 58 43 157 -11 199 -25 20 -38 21 -343 21 -305 0 -318 -1 -343 -21z m659
-27 c45 -30 42 -139 -5 -157 -29 -11 -624 -5 -637 6 -17 14 -28 72 -20 103 14
56 11 56 344 56 169 0 312 -4 318 -8z"/>
</g>
</svg>
